<svg xmlns="http://www.w3.org/2000/svg" viewBox="0 0 256 256">
  <defs>
    <linearGradient id="bg" x1="0%" y1="0%" x2="100%" y2="100%">
      <stop offset="0%" stop-color="#5B8CFF"/>
      <stop offset="100%" stop-color="#7A5CFF"/>
    </linearGradient>
  </defs>

  <!-- Background -->
  <rect x="20" y="20" width="216" height="216" rx="48" fill="url(#bg)"/>

  <!-- PDF -->
  <path d="M58 62h46l18 18v62H58z" fill="white" opacity=".95"/>
  <path d="M104 62v18h18" fill="#DCE6FF"/>

  <!-- Image -->
  <rect x="136" y="60" width="62" height="62" rx="10"
        fill="white" opacity=".95"/>
  <circle cx="181" cy="77" r="6" fill="#7A5CFF"/>
  <path d="M146 108l14-16 13 11 12-15 13 20z"
        fill="#7A5CFF"/>

  <!-- Convert -->
  <path d="M70 168h38l-8-8m8 8l-8 8"
        stroke="white"
        stroke-width="6"
        stroke-linecap="round"
        stroke-linejoin="round"/>
  <path d="M186 188h-38l8-8m-8 8l8 8"
        stroke="white"
        stroke-width="6"
        stroke-linecap="round"
        stroke-linejoin="round"/>

  <!-- Gear -->
  <g transform="translate(128 182)">
    <circle r="18" fill="white"/>
    <circle r="7" fill="#5B8CFF"/>
    <g fill="white">
      <rect x="-2" y="-30" width="4" height="8"/>
      <rect x="-2" y="22" width="4" height="8"/>
      <rect x="-30" y="-2" width="8" height="4"/>
      <rect x="22" y="-2" width="8" height="4"/>
      <rect x="-2" y="-30" width="4" height="8" transform="rotate(45)"/>
      <rect x="-2" y="-30" width="4" height="8" transform="rotate(90)"/>
      <rect x="-2" y="-30" width="4" height="8" transform="rotate(135)"/>
    </g>
  </g>

  <!-- AI Sparkle -->
  <path d="M214 44l3 8 8 3-8 3-3 8-3-8-8-3 8-3z"
        fill="#FFD54F"/>

  <!-- Compression -->
  <path d="M154 148h28M168 136v24"
        stroke="white"
        stroke-width="6"
        stroke-linecap="round"/>
</svg>