<svg xmlns="http://www.w3.org/2000/svg" viewBox="0 0 960 540" role="img" aria-labelledby="title desc">
  <title id="title">Lumix Core project preview</title>
  <desc id="desc">AI platform dashboard artwork with analytics panels.</desc>
  <defs>
    <linearGradient id="g" x1="0" x2="1" y1="0" y2="1"><stop stop-color="#36c5ff"/><stop offset=".55" stop-color="#7c3aed"/><stop offset="1" stop-color="#111827"/></linearGradient>
  </defs>
  <rect width="960" height="540" rx="46" fill="#07111f"/>
  <path d="M0 0h960v540H0z" fill="url(#g)" opacity=".82"/>
  <rect x="88" y="80" width="784" height="380" rx="28" fill="#09111f" opacity=".82"/>
  <rect x="122" y="120" width="210" height="300" rx="20" fill="#111827"/>
  <rect x="366" y="120" width="216" height="126" rx="20" fill="#152033"/>
  <rect x="614" y="120" width="216" height="126" rx="20" fill="#152033"/>
  <rect x="366" y="278" width="464" height="142" rx="20" fill="#152033"/>
  <circle cx="227" cy="208" r="66" fill="#38bdf8"/>
  <path d="M196 210l22 22 46-56" fill="none" stroke="#fff" stroke-width="18" stroke-linecap="round" stroke-linejoin="round"/>
  <path d="M407 205c42-70 82 48 136-28" fill="none" stroke="#8b5cf6" stroke-width="12" stroke-linecap="round"/>
  <path d="M651 200h136M651 166h92M651 234h108" stroke="#dbeafe" stroke-width="14" stroke-linecap="round"/>
  <path d="M408 365h360M408 326h210M408 396h280" stroke="#dbeafe" stroke-width="13" stroke-linecap="round" opacity=".8"/>
</svg>
